<svg width="99" height="22" viewBox="0 0 99 22" fill="none" xmlns="http://www.w3.org/2000/svg">
<path d="M40.2418 17.3504C39.9818 17.5217 39.6848 17.6807 39.3382 17.7908C38.9792 17.9254 38.645 17.9866 38.3727 17.9866C37.7909 17.9866 37.3329 17.8153 36.9863 17.4482C36.6273 17.0812 36.454 16.555 36.454 15.8576V9.15241H41.2444V6.30146H36.4664V2.06787H33.2357V6.30146H30.8095V9.15241H33.2357V15.9922C33.2357 17.5828 33.6937 18.8309 34.6097 19.7241C35.5133 20.6051 36.7387 21.0578 38.2489 21.0578C39.4124 21.0578 40.576 20.6663 41.6777 19.9076L41.9129 19.7486L40.2418 17.3504Z" fill="#0660C6"/>
<path d="M64.7756 0.183594H61.5696V20.7031H64.7756V0.183594Z" fill="#0660C6"/>
<path d="M80.8303 8.11237C80.1248 7.4394 79.2954 6.9255 78.3547 6.55842C77.4139 6.19135 76.4237 6.00781 75.3963 6.00781C74.3441 6.00781 73.2919 6.21582 72.2398 6.63184C71.1753 7.04786 70.2716 7.68412 69.5537 8.51616C68.8481 9.33595 68.3406 10.1925 68.0807 11.049C67.8207 11.8932 67.6846 12.7131 67.6846 13.5084C67.6846 14.5607 67.8826 15.5763 68.2787 16.494C68.6748 17.4239 69.2319 18.2437 69.9374 18.9166C70.643 19.5896 71.4723 20.128 72.4131 20.4951C73.3538 20.8621 74.3565 21.0457 75.3963 21.0457C76.4237 21.0457 77.4263 20.8621 78.3547 20.4951C79.2954 20.128 80.1248 19.6019 80.8303 18.9166C81.5359 18.2437 82.0929 17.4239 82.489 16.494C82.8851 15.564 83.0832 14.5607 83.0832 13.5084C83.0832 12.4561 82.8851 11.4528 82.489 10.5351C82.1053 9.58067 81.5483 8.78534 80.8303 8.11237ZM75.3963 18.0968C74.6412 18.0968 73.8861 17.9011 73.1434 17.5095C72.4131 17.1302 71.8561 16.5918 71.46 15.8577C71.0515 15.1235 70.8534 14.316 70.8534 13.4839C70.8534 12.6641 71.0143 11.9544 71.3486 11.3671C71.6828 10.7553 72.0541 10.2903 72.4378 9.98445C72.834 9.66632 73.2919 9.40937 73.7871 9.2136C74.2698 9.03006 74.8269 8.93217 75.421 8.93217C76.0152 8.93217 76.597 9.04229 77.1416 9.26254C77.6862 9.48278 78.1814 9.80092 78.6022 10.2047C79.0107 10.5962 79.3449 11.0857 79.5677 11.6363C79.8029 12.1991 79.9267 12.8232 79.9267 13.4839C79.9267 14.1447 79.8029 14.7687 79.5677 15.3438C79.3326 15.9189 79.0107 16.4083 78.5899 16.8121C78.169 17.2159 77.6862 17.534 77.1416 17.7542C76.5722 17.9867 75.9904 18.0968 75.3963 18.0968Z" fill="#0660C6"/>
<path d="M14.9282 0C12.5516 0 7.60028 0.917687 1.12643 7.04783C1.06454 7.10901 0.0123791 8.14905 0.0123791 8.14905L3.42879 10.9878L0 13.8509C0 13.8509 1.06454 14.9032 1.12643 14.9644C7.5879 21.0823 12.5392 22 14.9159 22C21.0184 22 25.9821 17.0567 25.9821 10.9878C25.9944 4.94327 21.0307 0 14.9282 0ZM14.9282 19.8465C12.9477 19.8465 8.86287 19.0634 3.26787 13.9855L5.12462 12.4316C6.95661 13.9244 11.6727 17.4972 14.9159 17.4972C18.5056 17.4972 21.4269 14.5851 21.4269 11.0245C21.4269 7.45161 18.5056 4.55172 14.9159 4.55172C11.6727 4.55172 6.98137 8.10011 5.137 9.60512C5.137 9.60512 5.137 9.60512 5.12462 9.61735C5.12462 9.61735 5.12462 9.61735 5.137 9.60512L3.26787 8.05117C8.85049 2.9733 12.9353 2.19021 14.9159 2.19021C19.8053 2.19021 23.7787 6.15462 23.7787 11.0245C23.7911 15.8821 19.8177 19.8465 14.9282 19.8465ZM6.86996 11.0122C7.12991 10.8042 7.41461 10.584 7.71169 10.3637C9.87789 8.73637 13.022 6.70523 14.9282 6.70523C17.3049 6.70523 19.2359 8.63849 19.2359 11.0122C19.2359 13.386 17.3049 15.3192 14.9282 15.3192C13.022 15.3192 9.91503 13.3248 7.74882 11.6974C7.43936 11.4527 7.12991 11.2202 6.86996 11.0122Z" fill="#0660C6"/>
<path d="M54.9226 16.4206C54.6131 16.8366 54.0685 17.2771 53.66 17.5096C52.9668 17.9134 52.1498 18.1214 51.2338 18.1214C50.6025 18.1214 50.0084 17.9868 49.4885 17.7298C48.9438 17.4606 48.4858 17.118 48.1269 16.7143C47.7679 16.3105 47.4956 15.8578 47.3223 15.3806C47.2109 15.0747 47.1366 14.781 47.0747 14.4873H58.5247V13.1659V13.1414C58.4875 12.1258 58.2771 11.1592 57.9057 10.2782C57.5344 9.38498 57.0145 8.61413 56.3708 7.96563C55.7148 7.31713 54.9597 6.8277 54.0932 6.4851C53.2391 6.14249 52.3231 5.97119 51.3576 5.97119C50.3797 5.97119 49.3647 6.1792 48.3497 6.58298C47.3099 6.98676 46.4187 7.62303 45.7007 8.4673C44.9952 9.29933 44.4877 10.1558 44.2277 11.0368C43.9678 11.8933 43.8316 12.7376 43.8316 13.5452C43.8316 14.6219 44.0297 15.6375 44.4258 16.5797C44.8219 17.5218 45.3665 18.3294 46.0721 18.9901C46.7653 19.6509 47.5699 20.1648 48.4611 20.5196C49.3523 20.8744 50.2807 21.058 51.2215 21.058C52.8554 21.058 54.2913 20.6542 55.5043 19.8711C56.0861 19.4918 56.606 19.0268 57.0393 18.4762L54.9226 16.4206ZM48.0402 10.3883C48.5477 9.81324 49.1171 9.43393 49.7361 9.22592C50.3797 9.01791 50.9368 8.90779 51.3824 8.90779C51.9889 8.90779 52.5954 9.04238 53.1896 9.31157C53.7714 9.56852 54.2294 9.9723 54.6007 10.5352C54.8607 10.9267 55.0587 11.355 55.1825 11.8199H47.2356C47.3966 11.2693 47.6689 10.8043 48.0402 10.3883Z" fill="#0660C6"/>
<path d="M96.0557 7.41502C94.9416 6.46062 93.4562 5.97119 91.6366 5.97119C90.0646 5.97119 88.6906 6.38721 87.5518 7.19477C87.0195 7.57408 86.5863 8.01457 86.2397 8.50401L88.6782 10.3394C88.9134 10.0335 89.1857 9.75206 89.5323 9.50734C90.1017 9.10356 90.8444 8.89555 91.7356 8.89555C92.3917 8.89555 92.9487 9.03015 93.3943 9.31157C93.8399 9.58076 94.137 9.91112 94.3103 10.3149C94.496 10.7554 94.595 11.2081 94.595 11.6486V11.7098H90.634C88.802 11.7098 87.3413 12.138 86.3016 12.9823C85.2246 13.8511 84.68 15.0135 84.68 16.4206C84.68 17.791 85.1999 18.9289 86.2273 19.7855C87.2299 20.6297 88.542 21.0457 90.1264 21.0457C91.3024 21.0457 92.3793 20.8133 93.3077 20.3361C93.7781 20.1036 94.2113 19.8222 94.595 19.504V20.6909H97.7515V11.514C97.7639 9.77653 97.1821 8.39388 96.0557 7.41502ZM94.6074 14.5852C94.6074 15.3439 94.3846 16.0046 93.9266 16.6041C93.4562 17.2037 92.9116 17.632 92.2803 17.8644C91.6242 18.1091 91.0053 18.2315 90.4359 18.2315C89.8417 18.2315 89.3095 18.1214 88.8639 17.9011C88.4554 17.6931 88.1707 17.4607 88.0469 17.1915C87.8984 16.8978 87.8241 16.6286 87.8241 16.3961C87.8241 15.8333 88.0469 15.3928 88.5049 15.038C89 14.6586 89.718 14.4629 90.634 14.4629H94.6198V14.5852H94.6074Z" fill="#0660C6"/>
</svg>
